<?xml version="1.0" standalone="no"?>
<!DOCTYPE svg PUBLIC "-//W3C//DTD SVG 20010904//EN"
 "http://www.w3.org/TR/2001/REC-SVG-20010904/DTD/svg10.dtd">
<svg version="1.0" xmlns="http://www.w3.org/2000/svg"
 width="390.000000pt" height="299.000000pt" viewBox="0 0 390.000000 299.000000"
 preserveAspectRatio="xMidYMid meet">

<g transform="translate(0.000000,299.000000) scale(0.100000,-0.100000)"
fill="#000000" stroke="none">
<path d="M401 2303 l-22 -18 1 -823 c0 -519 4 -830 10 -842 22 -42 112 -32
130 14 5 14 8 363 7 836 l-2 812 -24 19 c-29 24 -72 24 -100 2z"/>
<path d="M3419 2301 l-24 -19 2 -827 c1 -592 5 -830 13 -840 33 -40 113 -23
129 29 7 20 10 300 8 835 l-3 804 -23 18 c-30 24 -72 24 -102 0z"/>
<path d="M1218 1866 c-14 -7 -70 -47 -125 -88 -54 -41 -153 -113 -220 -161
-133 -95 -141 -108 -129 -191 7 -42 9 -44 208 -187 279 -199 278 -199 303
-199 31 0 75 37 75 64 0 33 -12 44 -168 156 -79 57 -145 107 -147 111 -5 8
1321 22 1618 17 l197 -3 -146 -105 c-174 -125 -194 -142 -194 -170 0 -29 44
-70 74 -70 24 0 472 310 509 352 18 21 24 112 9 134 -4 6 -36 30 -72 54 -36
24 -144 100 -240 169 -136 97 -182 125 -207 125 -56 0 -88 -47 -64 -92 5 -10
82 -69 170 -132 88 -62 158 -116 155 -119 -7 -8 -1796 -19 -1818 -11 -15 5 12
29 130 115 187 136 194 142 194 175 0 50 -63 82 -112 56z"/>
</g>
</svg>
