<?xml version="1.0" standalone="no"?>
<!DOCTYPE svg PUBLIC "-//W3C//DTD SVG 20010904//EN"
 "http://www.w3.org/TR/2001/REC-SVG-20010904/DTD/svg10.dtd">
<svg version="1.0" xmlns="http://www.w3.org/2000/svg"
 width="313.000000pt" height="306.000000pt" viewBox="0 0 313.000000 306.000000"
 preserveAspectRatio="xMidYMid meet">

<g transform="translate(0.000000,306.000000) scale(0.100000,-0.100000)"
fill="#000000" stroke="none">
<path d="M107 2922 c-15 -17 -17 -55 -17 -340 0 -320 0 -321 22 -336 18 -13
52 -16 160 -16 l138 0 0 -149 c0 -123 3 -152 16 -165 19 -20 64 -21 90 -2 17
13 19 30 22 165 l3 151 104 0 c145 0 144 -1 147 165 l3 130 84 5 c68 5 87 10
100 27 l17 20 28 -23 c26 -23 32 -24 204 -24 202 0 222 6 222 64 0 62 -14 66
-223 66 -176 0 -188 -1 -208 -21 l-21 -21 -22 21 c-17 16 -37 21 -101 23 l-80
3 -3 120 c-2 93 -6 123 -19 137 -15 17 -41 18 -333 18 -294 0 -318 -1 -333
-18z m553 -337 l0 -225 -220 0 -220 0 0 225 0 225 220 0 220 0 0 -225z"/>
<path d="M2337 2922 c-14 -15 -17 -41 -17 -140 l0 -122 -80 0 c-67 0 -83 -3
-100 -20 l-20 -20 -20 20 c-19 19 -33 20 -210 20 -177 0 -191 -1 -210 -20 -11
-11 -20 -31 -20 -45 0 -14 9 -34 20 -45 19 -19 33 -20 201 -20 174 0 213 6
231 33 3 6 17 1 33 -12 23 -17 41 -21 101 -21 l74 0 0 -130 c0 -171 -1 -170
150 -170 l110 0 0 -148 c0 -132 2 -151 18 -165 25 -23 68 -21 92 3 18 18 20
33 20 165 l0 145 133 0 c195 0 177 -36 177 355 0 281 -2 326 -16 339 -13 14
-58 16 -333 16 -295 0 -319 -1 -334 -18z m553 -337 l0 -225 -220 0 -220 0 0
225 0 225 220 0 220 0 0 -225z"/>
<path d="M432 1704 c-21 -15 -22 -21 -22 -184 0 -192 4 -203 69 -198 54 5 61
27 61 199 0 133 -2 149 -21 173 -23 29 -54 33 -87 10z"/>
<path d="M2602 1704 c-21 -15 -22 -21 -22 -183 0 -187 5 -201 68 -201 55 0 62
23 62 202 0 145 -2 160 -20 178 -24 24 -57 26 -88 4z"/>
<path d="M431 1123 c-19 -17 -21 -29 -23 -168 l-3 -150 -140 -3 c-112 -2 -143
-6 -157 -19 -17 -15 -18 -41 -18 -334 0 -275 2 -320 16 -333 13 -14 58 -16
338 -16 288 0 325 2 337 16 9 12 14 48 15 118 1 173 -8 156 81 156 64 0 80 3
99 21 l22 21 21 -21 c20 -20 32 -21 210 -21 215 0 225 3 219 69 -5 57 -25 62
-230 59 -167 -3 -179 -4 -199 -25 l-22 -22 -17 22 c-15 17 -32 22 -101 27 -77
5 -84 7 -80 25 8 46 -11 226 -26 240 -11 11 -41 15 -124 15 l-109 0 0 145 c0
142 -1 147 -25 170 -29 29 -55 32 -84 8z m231 -537 c2 -81 1 -209 -1 -318 l-1
-38 -220 0 -220 0 0 220 0 219 118 4 c64 2 163 3 220 4 l102 1 2 -92z"/>
<path d="M2601 1123 c-19 -17 -21 -29 -23 -168 l-3 -150 -110 -3 c-148 -4
-145 -1 -145 -159 l0 -123 -71 0 c-67 0 -106 -11 -121 -34 -4 -6 -14 -3 -28 9
-20 18 -40 20 -197 23 -120 2 -185 0 -204 -9 -36 -14 -48 -53 -28 -88 l15 -26
198 -3 c175 -2 201 0 217 14 18 16 20 16 37 1 14 -13 38 -17 100 -17 l82 0 0
-129 c0 -104 3 -133 16 -145 13 -14 58 -16 338 -16 237 0 325 3 334 12 9 9 12
97 12 334 0 280 -2 325 -16 338 -12 13 -41 16 -155 16 l-139 0 0 149 0 150
-26 20 c-33 26 -55 26 -83 4z m289 -673 l0 -220 -220 0 -220 0 0 218 c0 120 2
221 4 223 2 2 101 3 220 1 l216 -3 0 -219z"/>
</g>
</svg>
