<?xml version="1.0" standalone="no"?>
<!DOCTYPE svg PUBLIC "-//W3C//DTD SVG 20010904//EN"
 "http://www.w3.org/TR/2001/REC-SVG-20010904/DTD/svg10.dtd">
<svg version="1.0" xmlns="http://www.w3.org/2000/svg"
 width="321.000000pt" height="319.000000pt" viewBox="0 0 321.000000 319.000000"
 preserveAspectRatio="xMidYMid meet">

<g transform="translate(0.000000,319.000000) scale(0.100000,-0.100000)"
fill="#000000" stroke="none">
<path d="M1523 3069 c-43 -23 -141 -76 -218 -119 -471 -260 -744 -411 -845
-465 -63 -35 -127 -74 -143 -86 l-27 -24 -1 -770 c0 -424 3 -778 6 -787 4 -9
72 -51 153 -94 81 -42 262 -140 402 -217 637 -349 735 -401 765 -401 20 1 155
69 395 201 541 297 778 426 847 462 34 18 65 40 69 50 7 18 5 1546 -2 1565 -3
7 -69 48 -147 91 -78 43 -196 108 -262 145 -159 90 -799 441 -852 469 -23 11
-46 21 -52 21 -5 0 -45 -19 -88 -41z m309 -227 c117 -65 365 -201 551 -302
185 -102 337 -187 337 -190 0 -8 -1094 -630 -1108 -630 -21 0 -1103 623 -1099
633 3 10 1083 606 1099 607 4 0 103 -53 220 -118z m-1124 -769 c472 -267 816
-465 830 -475 17 -15 18 -1308 0 -1308 -6 0 -48 20 -92 44 -45 24 -292 159
-551 299 l-470 256 -3 670 c-1 369 1 671 4 671 3 0 130 -71 282 -157z m2076
-1190 c-9 -7 -139 -78 -288 -159 -282 -153 -352 -191 -626 -343 -91 -50 -171
-91 -178 -91 -9 0 -12 150 -12 653 l0 654 248 141 c136 77 387 220 557 316
l310 176 3 -667 c2 -611 1 -669 -14 -680z"/>
</g>
</svg>
