<svg version="1.1" id="Layer_1" xmlns="http://www.w3.org/2000/svg" xmlns:xlink="http://www.w3.org/1999/xlink" x="0px" y="0px"
	 width="100%" viewBox="0 0 512 512" enable-background="new 0 0 512 512" xml:space="preserve">
<path fill="#FFFFFF" opacity="1.000000" stroke="none" 
	d="
M1.000000,496.000000 
	C1.000000,486.645782 1.000000,477.291534 1.468642,467.468658 
	C9.206713,467.000000 16.476141,467.000000 24.000000,467.000000 
	C24.000000,462.502136 24.000000,458.530182 24.000000,454.558197 
	C24.000000,403.575317 24.010181,352.592438 23.969883,301.609589 
	C23.967871,299.063873 23.810459,296.878632 27.038935,295.986725 
	C53.331310,288.723297 79.553444,281.198669 105.921799,274.225677 
	C109.449623,273.292786 110.063354,272.168579 110.041595,269.115692 
	C109.945435,255.620911 110.192772,242.120758 109.891510,228.632019 
	C109.791145,224.138321 110.938042,222.316757 115.523232,220.828903 
	C152.067230,208.970673 188.470688,196.679276 225.000000,184.493088 
	C225.000000,162.668823 225.088242,141.016708 224.911697,119.366730 
	C224.882828,115.826584 225.998611,114.231033 229.254150,112.872894 
	C237.540817,109.415871 245.646057,105.513702 253.761261,101.657860 
	C273.052277,92.491951 292.293915,83.222153 311.579651,74.045135 
	C338.259766,61.349556 364.948822,48.672455 391.660675,36.043873 
	C404.578217,29.936838 417.525055,23.888504 430.552673,18.022419 
	C431.966217,17.385923 434.416504,17.510860 435.693085,18.344053 
	C452.692657,29.438980 469.500793,40.827824 486.531189,51.874302 
	C490.010498,54.131123 491.097382,56.564869 491.093933,60.631977 
	C490.980377,194.753510 491.000000,328.875153 491.000000,462.996765 
	C491.000000,464.928253 491.000000,466.859711 491.000000,469.000000 
	C498.715149,469.000000 505.857574,469.000000 513.000000,469.000000 
	C513.000000,478.020905 513.000000,487.041779 512.531372,496.531342 
	C476.464539,497.000000 440.866394,497.000000 404.957764,497.000000 
	C404.957764,352.719727 404.957764,208.961823 404.957764,64.107925 
	C354.557709,88.017189 304.834930,111.605164 254.599869,135.436157 
	C254.599869,147.552200 254.599869,159.728745 254.599869,172.044449 
	C255.335327,171.900131 256.157440,171.834534 256.913879,171.576355 
	C275.106537,165.367142 293.269745,159.069962 311.510071,153.004456 
	C313.576965,152.317169 316.599365,152.034714 318.284912,153.049316 
	C335.921722,163.665939 353.355621,174.618973 370.900208,185.390182 
	C373.960999,187.269287 375.118286,189.465561 375.112152,193.266510 
	C374.967468,282.589813 375.000000,371.913391 375.000000,461.236938 
	C375.000000,463.026276 375.000000,464.815643 375.000000,466.998352 
	C381.790833,466.998352 388.203949,466.998352 394.797272,466.998352 
	C394.797272,476.469910 394.797272,485.541016 394.797272,494.797028 
	C358.858826,494.797028 323.123169,494.797028 286.994598,494.797028 
	C286.994598,424.194885 286.994598,353.794281 286.994598,283.197571 
	C271.234070,283.197571 255.866409,283.197571 240.160645,283.197571 
	C241.933899,285.854858 243.355301,288.363037 245.139175,290.579529 
	C248.871216,295.216705 250.163391,300.247192 250.135559,306.316101 
	C249.898651,357.976013 250.000000,409.637482 250.000000,461.298462 
	C250.000000,463.082733 250.000000,464.867004 250.000000,467.041931 
	C254.834595,467.041931 259.252777,467.041931 263.775818,467.041931 
	C263.775818,476.846558 263.775818,486.251373 263.775818,495.183105 
	C240.415604,495.183105 217.286331,495.183105 194.500000,495.183105 
	C194.500000,423.607269 194.500000,352.848297 194.500000,281.762756 
	C192.932281,282.245178 191.730377,282.690033 190.492706,282.984711 
	C170.458542,287.754272 150.410599,292.466217 130.384521,297.269379 
	C105.829674,303.158783 81.301224,309.158478 56.738533,315.014771 
	C52.599792,316.001526 50.813812,317.577911 50.836521,322.512726 
	C51.094158,378.505402 51.000000,434.499664 51.000000,490.493530 
	C51.000000,492.258698 51.000000,494.023865 51.000000,496.000000 
	C33.951992,496.000000 17.475996,496.000000 1.000000,496.000000 
M138.000000,251.645020 
	C138.000000,256.061340 138.000000,260.477692 138.000000,264.973846 
	C139.094742,264.973846 139.624939,265.089264 140.084000,264.957306 
	C161.977402,258.663483 183.816956,252.171860 205.804092,246.225800 
	C209.100143,245.334427 214.034424,241.277344 216.767456,247.844147 
	C216.835022,248.006485 218.215088,247.636765 218.978851,247.492996 
	C226.917297,245.998688 234.838562,244.406036 242.796265,243.022903 
	C256.666809,240.612045 270.568756,238.380219 284.423981,235.886871 
	C285.421753,235.707306 286.874817,234.021805 286.888153,233.020126 
	C287.056396,220.389450 286.998657,207.755798 286.998657,194.067657 
	C281.223877,196.208160 276.183838,198.220078 271.050568,199.956329 
	C228.546097,214.332886 186.056519,228.755554 143.460419,242.856049 
	C138.975204,244.340790 137.158569,246.217224 138.000000,251.645020 
z"/>
<path fill="#000000" opacity="1.000000" stroke="none" 
	d="
M513.000000,468.531342 
	C505.857574,469.000000 498.715149,469.000000 491.000000,469.000000 
	C491.000000,466.859711 491.000000,464.928253 491.000000,462.996765 
	C491.000000,328.875153 490.980377,194.753510 491.093933,60.631977 
	C491.097382,56.564869 490.010498,54.131123 486.531189,51.874302 
	C469.500793,40.827824 452.692657,29.438980 435.693085,18.344053 
	C434.416504,17.510860 431.966217,17.385923 430.552673,18.022419 
	C417.525055,23.888504 404.578217,29.936838 391.660675,36.043873 
	C364.948822,48.672455 338.259766,61.349556 311.579651,74.045135 
	C292.293915,83.222153 273.052277,92.491951 253.761261,101.657860 
	C245.646057,105.513702 237.540817,109.415871 229.254150,112.872894 
	C225.998611,114.231033 224.882828,115.826584 224.911697,119.366730 
	C225.088242,141.016708 225.000000,162.668823 225.000000,184.493088 
	C188.470688,196.679276 152.067230,208.970673 115.523232,220.828903 
	C110.938042,222.316757 109.791145,224.138321 109.891510,228.632019 
	C110.192772,242.120758 109.945435,255.620911 110.041595,269.115692 
	C110.063354,272.168579 109.449623,273.292786 105.921799,274.225677 
	C79.553444,281.198669 53.331310,288.723297 27.038935,295.986725 
	C23.810459,296.878632 23.967871,299.063873 23.969883,301.609589 
	C24.010181,352.592438 24.000000,403.575317 24.000000,454.558197 
	C24.000000,458.530182 24.000000,462.502136 24.000000,467.000000 
	C16.476141,467.000000 9.206713,467.000000 1.468642,467.000000 
	C1.000000,311.713593 1.000000,156.427200 1.000000,1.070398 
	C171.568146,1.070398 342.136353,1.070398 513.000000,1.070398 
	C513.000000,156.687439 513.000000,312.375061 513.000000,468.531342 
z"/>
<path fill="#000000" opacity="1.000000" stroke="none" 
	d="
M1.000000,496.470459 
	C17.475996,496.000000 33.951992,496.000000 51.000000,496.000000 
	C51.000000,494.023865 51.000000,492.258698 51.000000,490.493530 
	C51.000000,434.499664 51.094158,378.505402 50.836521,322.512726 
	C50.813812,317.577911 52.599792,316.001526 56.738533,315.014771 
	C81.301224,309.158478 105.829674,303.158783 130.384521,297.269379 
	C150.410599,292.466217 170.458542,287.754272 190.492706,282.984711 
	C191.730377,282.690033 192.932281,282.245178 194.500000,281.762756 
	C194.500000,352.848297 194.500000,423.607269 194.500000,495.183105 
	C217.286331,495.183105 240.415604,495.183105 263.775818,495.183105 
	C263.775818,486.251373 263.775818,476.846558 263.775818,467.041931 
	C259.252777,467.041931 254.834595,467.041931 250.000000,467.041931 
	C250.000000,464.867004 250.000000,463.082733 250.000000,461.298462 
	C250.000000,409.637482 249.898651,357.976013 250.135559,306.316101 
	C250.163391,300.247192 248.871216,295.216705 245.139175,290.579529 
	C243.355301,288.363037 241.933899,285.854858 240.160645,283.197571 
	C255.866409,283.197571 271.234070,283.197571 286.994598,283.197571 
	C286.994598,353.794281 286.994598,424.194885 286.994598,494.797028 
	C323.123169,494.797028 358.858826,494.797028 394.797272,494.797028 
	C394.797272,485.541016 394.797272,476.469910 394.797272,466.998352 
	C388.203949,466.998352 381.790833,466.998352 375.000000,466.998352 
	C375.000000,464.815643 375.000000,463.026276 375.000000,461.236938 
	C375.000000,371.913391 374.967468,282.589813 375.112152,193.266510 
	C375.118286,189.465561 373.960999,187.269287 370.900208,185.390182 
	C353.355621,174.618973 335.921722,163.665939 318.284912,153.049316 
	C316.599365,152.034714 313.576965,152.317169 311.510071,153.004456 
	C293.269745,159.069962 275.106537,165.367142 256.913879,171.576355 
	C256.157440,171.834534 255.335327,171.900131 254.599869,172.044449 
	C254.599869,159.728745 254.599869,147.552200 254.599869,135.436157 
	C304.834930,111.605164 354.557709,88.017189 404.957764,64.107925 
	C404.957764,208.961823 404.957764,352.719727 404.957764,497.000000 
	C440.866394,497.000000 476.464539,497.000000 512.531372,497.000000 
	C513.000000,502.329010 513.000000,507.658051 513.000000,512.963989 
	C342.333344,512.963989 171.666656,512.963989 1.000000,512.963989 
	C1.000000,507.598999 1.000000,502.269958 1.000000,496.470459 
z"/>
<path fill="#000000" opacity="1.000000" stroke="none" 
	d="
M138.000000,251.172012 
	C137.158569,246.217224 138.975204,244.340790 143.460419,242.856049 
	C186.056519,228.755554 228.546097,214.332886 271.050568,199.956329 
	C276.183838,198.220078 281.223877,196.208160 286.998657,194.067657 
	C286.998657,207.755798 287.056396,220.389450 286.888153,233.020126 
	C286.874817,234.021805 285.421753,235.707306 284.423981,235.886871 
	C270.568756,238.380219 256.666809,240.612045 242.796265,243.022903 
	C234.838562,244.406036 226.917297,245.998688 218.978851,247.492996 
	C218.215088,247.636765 216.835022,248.006485 216.767456,247.844147 
	C214.034424,241.277344 209.100143,245.334427 205.804092,246.225800 
	C183.816956,252.171860 161.977402,258.663483 140.084000,264.957306 
	C139.624939,265.089264 139.094742,264.973846 138.000000,264.973846 
	C138.000000,260.477692 138.000000,256.061340 138.000000,251.172012 
z"/>
</svg>