<?xml version="1.0" standalone="no"?>
<!DOCTYPE svg PUBLIC "-//W3C//DTD SVG 20010904//EN"
 "http://www.w3.org/TR/2001/REC-SVG-20010904/DTD/svg10.dtd">
<svg version="1.0" xmlns="http://www.w3.org/2000/svg"
 width="512.000000pt" height="512.000000pt" viewBox="0 0 512.000000 512.000000"
 preserveAspectRatio="xMidYMid meet">

<g transform="translate(0.000000,512.000000) scale(0.100000,-0.100000)"
fill="#000000" stroke="none">
<path d="M2867 4902 c-34 -32 -570 -532 -1192 -1111 -621 -579 -1145 -1068
-1162 -1087 l-33 -34 0 -270 0 -271 25 -24 24 -25 256 0 255 0 0 -640 0 -640
-255 0 -256 0 -24 -25 -25 -24 0 -271 0 -271 25 -24 24 -25 833 0 833 0 1222
1223 1223 1222 0 273 0 273 -25 24 -24 25 -256 0 -255 0 0 323 1 322 202 187
c111 104 237 221 280 261 l77 72 0 273 0 273 -25 24 -24 25 -831 0 -832 0 -61
-58z m1613 -341 l0 -119 -1120 -1046 -1120 -1046 0 124 0 125 1113 1039 c611
572 1115 1041 1120 1041 4 1 7 -53 7 -118z m-531 -1502 c21 -17 41 -19 220
-19 l196 0 -1120 -1120 -1120 -1120 -222 0 -223 0 0 640 0 640 255 0 255 0 88
79 c48 43 436 405 862 803 l775 724 5 -304 5 -304 24 -19z m-586 -1501 l-1118
-1118 -3 122 -3 122 1118 1118 1118 1118 3 -122 3 -122 -1118 -1118z m-1283
842 l0 -160 -255 0 -256 0 -24 -25 -25 -24 0 -751 0 -751 25 -24 24 -25 256 0
255 0 0 -160 0 -160 -720 0 -720 0 0 160 0 160 255 0 256 0 24 25 25 24 0 751
0 751 -25 24 -24 25 -256 0 -255 0 0 160 0 160 720 0 720 0 0 -160z"/>
</g>
</svg>
